<?xml version="1.0" standalone="no"?>
<!DOCTYPE svg PUBLIC "-//W3C//DTD SVG 20010904//EN"
 "http://www.w3.org/TR/2001/REC-SVG-20010904/DTD/svg10.dtd">
<svg version="1.0" xmlns="http://www.w3.org/2000/svg"
 width="300.000000pt" height="300.000000pt" viewBox="0 0 300.000000 300.000000"
 preserveAspectRatio="xMidYMid meet">
<metadata>
Created by potrace 1.10, written by Peter Selinger 2001-2011
</metadata>
<defs>
  <linearGradient id="athlonGradient" x1="0%" y1="0%" x2="100%" y2="100%">
    <stop offset="0%" style="stop-color:#4A5BF5;stop-opacity:1" />
    <stop offset="50%" style="stop-color:#3742D8;stop-opacity:1" />
    <stop offset="100%" style="stop-color:#2E3AA8;stop-opacity:1" />
  </linearGradient>
  <filter id="shadow" x="-20%" y="-20%" width="140%" height="140%">
    <feDropShadow dx="2" dy="2" stdDeviation="3" flood-color="rgba(0,0,0,0.3)"/>
  </filter>
</defs>
<g transform="translate(0.000000,300.000000) scale(0.100000,-0.100000)"
fill="url(#athlonGradient)" stroke="none" filter="url(#shadow)">
<path d="M2806 1971 c-33 -37 10 -94 53 -71 43 22 28 90 -19 90 -9 0 -25 -9
-34 -19z m54 -6 c19 -23 8 -50 -20 -50 -21 0 -25 5 -27 30 -1 27 -1 28 5 5 8
-30 40 -37 38 -8 -1 10 -8 23 -16 28 -8 5 -10 10 -4 10 6 0 17 -7 24 -15z"/>
<path d="M365 1901 c-46 -20 -99 -70 -120 -111 -17 -34 -145 -481 -145 -508 0
-10 5 -23 12 -30 15 -15 2334 -18 2387 -2 48 13 105 55 135 98 37 54 170 526
156 552 -11 20 -28 20 -1198 20 -1128 0 -1189 -1 -1227 -19z m2382 -24 c8 -5
11 -42 3 -42 -1 0 -3 -8 -6 -17 -8 -36 -10 -43 -17 -63 -3 -11 -8 -31 -11 -45
-2 -14 -15 -61 -29 -105 -14 -44 -33 -107 -42 -140 -24 -83 -42 -110 -104
-153 l-53 -37 -1142 -3 c-627 -2 -1156 0 -1173 3 -40 7 -41 19 -14 113 11 37
38 130 60 207 22 77 44 151 49 165 15 36 84 100 125 114 27 9 303 12 1189 11
634 0 1158 -3 1165 -8z"/>
<path d="M2215 1806 c-17 -7 -36 -20 -44 -30 -13 -15 -16 -15 -48 4 l-35 20
-29 -21 c-16 -11 -29 -30 -29 -41 0 -12 26 -48 60 -84 33 -34 60 -67 60 -72 0
-6 -24 -35 -54 -64 -68 -68 -77 -95 -41 -131 43 -42 144 -48 203 -11 19 13 26
12 53 -2 18 -9 41 -13 55 -10 25 7 167 143 197 189 14 22 15 31 6 50 -18 33
-170 187 -201 203 -34 17 -113 18 -153 0z m-2 -298 c-43 -43 -71 -78 -63 -78
9 0 50 35 93 78 l77 77 -75 75 -75 74 27 28 c24 25 34 28 88 28 l60 0 105
-105 105 -105 -103 -102 -102 -103 -27 28 -28 28 78 76 78 76 -78 79 c-43 43
-84 78 -93 78 -8 0 20 -35 62 -77 l77 -78 -97 -102 -98 -103 -70 0 c-62 0 -73
3 -94 25 l-24 26 78 77 77 78 -75 70 c-42 38 -76 72 -76 76 0 4 10 18 23 31
l22 24 102 -101 103 -101 -77 -77z"/>
<path d="M713 1803 c-23 -2 -47 -11 -53 -19 -16 -18 -36 -18 -44 1 -3 10 -19
15 -42 15 -33 0 -46 -9 -125 -90 -48 -49 -90 -98 -94 -110 -9 -29 11 -50 50
-50 26 0 42 10 81 50 27 28 54 50 60 50 7 0 22 -21 35 -47 19 -38 30 -49 52
-51 16 -2 34 1 41 7 9 7 19 6 35 -6 21 -14 25 -14 49 4 14 11 35 44 47 77 21
56 45 83 64 71 6 -3 6 -18 0 -38 -16 -55 -11 -94 13 -111 19 -13 25 -14 43 -2
11 7 26 25 33 39 21 42 72 48 72 8 0 -10 9 -28 20 -41 l20 -23 -25 -23 c-14
-13 -25 -27 -26 -31 -7 -63 -6 -104 2 -109 5 -3 47 -6 93 -6 68 -1 89 3 112
19 28 20 30 20 59 2 23 -13 53 -18 128 -18 58 -1 97 3 97 9 0 6 11 10 24 10
14 0 28 -4 31 -10 9 -15 36 -12 58 7 18 17 19 17 28 0 12 -21 42 -22 59 -2 11
14 15 14 30 0 25 -23 145 -23 170 0 24 22 28 116 6 134 -11 9 -8 17 18 44 35
37 82 174 71 207 -7 22 -45 36 -71 26 -8 -3 -23 -24 -32 -46 -9 -22 -20 -40
-24 -40 -4 0 -28 20 -54 45 -47 47 -95 60 -122 33 -8 -8 -15 -8 -28 3 -22 18
-209 19 -242 1 -20 -11 -80 -112 -67 -112 3 0 1 -9 -5 -20 -8 -15 -21 -20 -51
-20 -47 0 -56 14 -39 65 23 70 -16 114 -75 87 -15 -7 -26 -8 -30 -2 -13 21
-53 9 -82 -25 -17 -19 -36 -35 -44 -35 -8 0 -24 16 -36 35 -20 30 -28 34 -65
34 -24 0 -74 1 -113 4 -38 2 -89 2 -112 0z m-119 -34 c3 -2 20 -48 39 -102 35
-97 35 -97 13 -97 -19 0 -26 11 -46 76 -13 41 -27 77 -31 80 -4 2 -40 -32 -80
-76 -61 -67 -78 -80 -103 -80 -29 0 -26 4 73 104 92 92 119 111 135 95z m316
-11 c0 -15 -9 -18 -54 -18 l-53 0 -25 -82 c-20 -68 -28 -84 -46 -86 -27 -4
-27 -4 3 88 14 41 25 77 25 80 0 3 -22 3 -50 2 -27 -2 -50 -2 -50 1 0 28 15
32 130 32 108 0 120 -2 120 -17z m66 0 c-19 -69 -23 -63 51 -61 l68 1 11 39
c8 27 17 39 32 41 12 2 22 0 22 -3 0 -4 -14 -52 -31 -106 -26 -82 -35 -99 -52
-99 -20 0 -20 1 -1 75 5 19 0 20 -61 20 l-66 0 -13 -45 c-10 -33 -19 -46 -34
-48 -12 -2 -22 0 -22 4 0 4 14 51 30 105 26 84 34 99 52 99 16 0 19 -4 14 -22z
m279 5 c-12 -29 -45 -137 -45 -148 0 -6 29 -9 75 -7 41 2 75 1 75 -1 0 -32
-14 -37 -112 -37 -90 0 -99 2 -94 17 4 9 19 56 33 105 24 79 29 88 51 88 19 0
23 -4 17 -17z m575 -62 l67 -72 22 75 c18 60 27 76 42 76 10 0 19 -6 19 -12 0
-27 -59 -193 -69 -196 -6 -2 -43 30 -82 72 -39 42 -74 76 -78 76 -3 0 -16 -33
-27 -72 -17 -59 -25 -74 -42 -76 -12 -2 -22 0 -22 3 0 4 14 51 31 104 38 122
47 123 139 22z m-163 53 c9 -24 -26 -140 -49 -161 -17 -15 -37 -18 -119 -18
-63 0 -102 4 -110 12 -16 16 23 152 48 171 11 8 53 12 120 12 85 0 105 -3 110
-16z m-961 -71 c-3 -8 -6 -19 -6 -24 0 -5 -6 -9 -14 -9 -7 0 -18 17 -23 39
l-10 38 29 -15 c19 -9 27 -19 24 -29z m1133 -96 l43 -45 -28 -6 c-27 -6 -87
-8 -126 -4 -22 2 -24 24 -4 35 8 4 14 12 14 16 0 4 5 21 12 37 15 36 26 31 89
-33z m-685 -42 c4 -11 -1 -14 -19 -13 -14 1 -25 8 -25 15 0 18 37 16 44 -2z
m509 1 c3 -8 -1 -17 -9 -20 -16 -6 -44 2 -44 13 0 24 45 29 53 7z m-483 -56
c0 -5 -24 -10 -54 -10 -30 0 -58 -4 -61 -10 -4 -6 13 -10 44 -10 57 0 65 -7
51 -44 -9 -24 -14 -26 -75 -26 -37 0 -65 4 -65 10 0 6 27 10 60 10 47 0 60 3
60 15 0 11 -12 15 -45 15 -49 0 -67 18 -45 45 14 17 130 22 130 5z m140 -13
c0 -35 -19 -47 -72 -47 -41 0 -48 -3 -48 -20 0 -12 -7 -20 -16 -20 -10 0 -14
6 -11 14 3 8 11 33 17 55 l11 41 59 0 c56 0 60 -2 60 -23z m157 -4 c-3 -16
-10 -41 -16 -56 -11 -27 -13 -28 -78 -25 -75 3 -77 6 -48 76 14 32 15 32 81
32 l67 0 -6 -27z m153 7 c0 -11 -9 -25 -20 -32 -13 -9 -18 -19 -14 -35 5 -17
2 -23 -10 -23 -11 0 -16 9 -16 26 0 23 -3 25 -32 22 -25 -2 -34 -8 -36 -25 -2
-13 -9 -23 -16 -23 -11 0 -10 11 2 55 l15 55 64 0 c56 0 63 -2 63 -20z m285
10 c-3 -6 -31 -10 -61 -10 -30 0 -54 -4 -54 -10 0 -5 23 -10 50 -10 46 0 50
-2 50 -23 0 -36 -19 -47 -82 -47 -75 0 -76 18 -1 22 74 4 87 28 14 28 -47 0
-51 2 -51 24 0 21 -3 23 -32 17 -26 -5 -33 -13 -42 -45 -6 -22 -17 -41 -25
-44 -11 -4 -12 1 -7 19 19 72 20 69 -8 69 -14 0 -26 4 -26 10 0 6 56 9 140 9
88 0 138 -3 135 -9z"/>
<path d="M1443 1675 l-21 -66 85 3 86 3 18 50 c27 77 29 75 -64 75 l-83 0 -21
-65z m137 19 c0 -36 -20 -54 -60 -54 -47 0 -56 11 -34 45 13 20 25 25 55 25
29 0 39 -4 39 -16z"/>
<path d="M1217 1473 c-17 -16 -4 -24 35 -21 55 4 64 28 11 28 -22 0 -43 -3
-46 -7z"/>
<path d="M1357 1473 c-2 -5 -7 -20 -11 -35 -6 -28 -6 -28 42 -28 47 0 49 1 59
35 l11 35 -48 0 c-27 0 -51 -3 -53 -7z"/>
<path d="M1520 1470 c0 -5 18 -10 39 -10 22 0 43 5 46 10 4 6 -12 10 -39 10
-25 0 -46 -4 -46 -10z"/>
<path d="M271 1107 c-13 -77 -14 -87 -2 -87 5 0 13 25 16 55 8 63 13 63 36 -3
22 -67 40 -60 56 22 8 37 12 71 9 74 -10 9 -17 -4 -22 -44 -10 -69 -16 -71
-34 -14 -25 78 -45 77 -59 -3z"/>
<path d="M552 1108 c-10 -52 -9 -65 2 -77 9 -8 22 -11 33 -6 16 6 16 8 -6 16
-15 6 -21 14 -17 25 3 9 6 19 6 24 0 4 10 11 23 15 22 7 22 8 1 12 -16 3 -20
10 -16 29 2 13 0 24 -5 24 -5 0 -15 -28 -21 -62z"/>
<path d="M1040 1160 c0 -5 9 -10 21 -10 15 0 19 -5 15 -15 -3 -8 -8 -38 -12
-67 -9 -72 11 -52 23 22 7 46 12 56 31 58 42 6 22 22 -28 22 -27 0 -50 -4 -50
-10z"/>
<path d="M1140 1113 c-6 -32 -13 -63 -15 -70 -2 -7 0 -15 6 -18 9 -6 13 1 23
48 4 15 13 27 22 27 12 0 15 -9 12 -37 -2 -22 1 -37 7 -35 6 1 10 21 10 45 0
36 -3 42 -23 45 -18 3 -21 8 -16 28 4 14 2 24 -4 24 -6 0 -16 -26 -22 -57z"/>
<path d="M1381 1107 c-13 -77 -14 -87 -2 -87 5 0 12 16 15 35 6 32 10 35 41
35 19 0 35 5 35 10 0 6 -15 10 -34 10 -29 0 -33 3 -29 20 4 16 14 20 44 20 22
0 39 5 39 10 0 6 -22 10 -49 10 l-49 0 -11 -63z"/>
<path d="M1573 1110 c-11 -69 0 -99 33 -86 18 7 17 9 -5 17 -15 6 -21 14 -17
25 3 9 6 19 6 24 0 4 10 11 23 15 19 6 19 8 5 12 -11 3 -18 14 -18 29 0 47
-17 23 -27 -36z"/>
<path d="M1977 1148 c-41 -66 -64 -118 -56 -123 5 -4 14 6 21 20 9 21 18 25
42 23 23 -2 32 -9 34 -25 2 -13 8 -23 14 -23 6 0 8 13 4 33 -3 17 -8 51 -12
75 -7 47 -26 55 -47 20z m33 -45 c0 -7 -9 -13 -20 -13 -23 0 -24 3 -8 30 13
20 28 10 28 -17z"/>
<path d="M2065 1148 c-13 -54 -10 -110 7 -121 9 -6 21 -8 25 -3 4 4 0 12 -10
17 -24 14 -22 50 3 56 23 6 27 23 5 23 -11 0 -14 7 -9 25 4 15 2 25 -5 25 -6
0 -13 -10 -16 -22z"/>
<path d="M2137 1163 c-4 -7 -20 -125 -18 -130 5 -14 17 3 21 29 3 22 11 34 24
36 17 4 18 -1 13 -37 -5 -44 9 -57 19 -17 10 42 1 71 -24 74 -20 3 -23 8 -18
28 6 22 -7 34 -17 17z"/>
<path d="M2221 1107 c-13 -75 -14 -93 -4 -83 7 7 31 106 32 134 1 6 -3 12 -8
12 -5 0 -14 -28 -20 -63z"/>
<path d="M2357 1163 c-3 -5 -8 -34 -12 -67 -6 -45 -4 -60 6 -67 19 -12 39 -11
39 1 0 6 -7 10 -15 10 -10 0 -15 10 -15 29 0 21 6 31 23 36 20 6 20 8 4 12
-13 3 -17 11 -14 24 5 19 -8 36 -16 22z"/>
<path d="M770 1126 c0 -7 -3 -35 -6 -62 -5 -34 -3 -46 4 -39 15 15 26 115 13
115 -6 0 -11 -6 -11 -14z"/>
<path d="M394 1106 c-3 -8 -4 -29 -2 -48 3 -28 7 -33 31 -34 33 -1 33 -1 42
54 4 28 3 42 -4 42 -6 0 -11 -10 -11 -23 0 -29 -23 -62 -38 -53 -7 4 -8 17 -1
39 11 39 11 37 -1 37 -6 0 -13 -6 -16 -14z"/>
<path d="M486 1103 c-14 -51 -17 -83 -7 -83 5 0 13 16 17 36 4 24 13 38 25 41
27 7 23 23 -5 23 -15 0 -27 -7 -30 -17z"/>
<path d="M616 1098 c-15 -57 -3 -78 44 -78 17 0 30 35 30 83 0 31 -18 8 -22
-28 -2 -20 -9 -31 -22 -33 -17 -4 -18 0 -12 37 7 43 -7 58 -18 19z"/>
<path d="M702 1078 c-9 -46 -7 -62 9 -53 5 4 9 20 9 37 0 21 6 31 20 35 28 7
25 23 -4 23 -21 0 -26 -7 -34 -42z"/>
<path d="M807 1113 c-11 -19 -18 -93 -9 -93 6 0 13 18 17 40 5 30 11 40 26 40
17 0 18 -5 13 -42 -5 -32 -4 -40 5 -32 6 5 12 28 14 50 2 37 0 39 -30 42 -17
2 -33 -1 -36 -5z"/>
<path d="M900 1101 c-5 -11 -10 -31 -10 -45 0 -21 5 -26 26 -26 14 0 23 -4 19
-10 -3 -5 -17 -10 -31 -10 -13 0 -24 -4 -24 -10 0 -15 47 -12 63 5 9 8 18 29
22 47 4 18 9 41 11 51 8 26 -61 24 -76 -2z m50 -19 c0 -19 -18 -42 -32 -42
-10 0 -11 44 -1 53 13 14 33 7 33 -11z"/>
<path d="M1241 1106 c-33 -39 -6 -99 35 -81 18 8 18 8 -1 13 -36 8 -41 22 -7
22 36 0 51 22 32 45 -16 19 -44 19 -59 1z"/>
<path d="M1477 1083 c-7 -43 6 -65 39 -60 30 4 30 4 38 55 8 52 -9 56 -21 5
-5 -23 -15 -38 -23 -38 -11 0 -14 10 -12 38 5 48 -14 48 -21 0z"/>
<path d="M1636 1098 c-15 -57 -3 -78 43 -78 14 0 21 12 28 50 8 37 7 50 -1 47
-6 -2 -13 -19 -16 -38 -3 -23 -11 -35 -24 -37 -17 -4 -18 0 -12 37 7 43 -7 58
-18 19z"/>
<path d="M1723 1075 c-6 -24 -8 -47 -5 -50 11 -10 22 8 22 37 0 21 6 31 20 35
27 7 25 23 -3 23 -20 0 -25 -7 -34 -45z"/>
<path d="M1796 1105 c-21 -21 -21 -71 0 -79 24 -9 44 -7 44 4 0 6 -9 10 -20
10 -30 0 -24 18 8 22 21 2 27 8 27 28 0 31 -34 39 -59 15z"/>
<path d="M2262 1108 c-18 -18 -15 -75 4 -82 24 -9 44 -7 44 4 0 6 -9 10 -19
10 -11 0 -23 5 -26 10 -4 6 7 10 25 10 34 0 49 22 30 45 -15 18 -42 19 -58 3z"/>
<path d="M2416 1105 c-21 -21 -21 -71 0 -79 24 -9 44 -7 44 4 0 6 -9 10 -20
10 -30 0 -24 18 8 22 21 2 27 8 27 28 0 31 -34 39 -59 15z"/>
<path d="M2493 1104 c-3 -8 4 -25 17 -40 l23 -24 -26 0 c-15 0 -27 -4 -27 -10
0 -16 46 -12 60 5 11 13 9 20 -10 40 l-23 25 26 0 c15 0 27 5 27 10 0 17 -60
12 -67 -6z"/>
</g>
</svg>
